<mxfile host="app.diagrams.net" modified="2022-10-21T19:53:22.004Z" agent="5.0 (Windows NT 10.0; Win64; x64) AppleWebKit/537.36 (KHTML, like Gecko) Chrome/106.0.0.0 Safari/537.36" etag="CZpPTkCGMDCOqsZGBZr0" version="20.4.2" type="github">
  <diagram id="aZkcCpjuYTXVRL160-xG" name="Page-1">
    <mxGraphModel dx="3772" dy="53" grid="1" gridSize="10" guides="1" tooltips="1" connect="1" arrows="1" fold="1" page="1" pageScale="1" pageWidth="850" pageHeight="1100" math="0" shadow="0">
      <root>
        <mxCell id="0" />
        <mxCell id="1" parent="0" />
        <mxCell id="nSRQZIyI5lkoN6vEXMfe-1" value="&lt;div style=&quot;&quot;&gt;PeopleSoft Database&lt;/div&gt;&lt;div style=&quot;&quot;&gt;PS92PR&lt;/div&gt;" style="shape=cylinder3;whiteSpace=wrap;html=1;boundedLbl=1;backgroundOutline=1;size=15;fontStyle=1" parent="1" vertex="1">
          <mxGeometry x="-2510" y="1260" width="100" height="150" as="geometry" />
        </mxCell>
        <mxCell id="nSRQZIyI5lkoN6vEXMfe-2" value="-Contact Feed-" style="swimlane;fontStyle=1;childLayout=stackLayout;horizontal=1;startSize=30;horizontalStack=0;resizeParent=1;resizeParentMax=0;resizeLast=0;collapsible=1;marginBottom=0;" parent="1" vertex="1">
          <mxGeometry x="-2380" y="1140" width="165" height="420" as="geometry" />
        </mxCell>
        <mxCell id="nSRQZIyI5lkoN6vEXMfe-3" value="1.  PS_PERSON" style="text;strokeColor=none;fillColor=none;align=left;verticalAlign=middle;spacingLeft=4;spacingRight=4;overflow=hidden;points=[[0,0.5],[1,0.5]];portConstraint=eastwest;rotatable=0;fontStyle=1" parent="nSRQZIyI5lkoN6vEXMfe-2" vertex="1">
          <mxGeometry y="30" width="165" height="30" as="geometry" />
        </mxCell>
        <mxCell id="nSRQZIyI5lkoN6vEXMfe-4" value="2.  PS_PERSON_SA" style="text;strokeColor=none;fillColor=none;align=left;verticalAlign=middle;spacingLeft=4;spacingRight=4;overflow=hidden;points=[[0,0.5],[1,0.5]];portConstraint=eastwest;rotatable=0;" parent="nSRQZIyI5lkoN6vEXMfe-2" vertex="1">
          <mxGeometry y="60" width="165" height="30" as="geometry" />
        </mxCell>
        <mxCell id="nSRQZIyI5lkoN6vEXMfe-5" value="3.  PS_N__LDAP_DATA" style="text;strokeColor=none;fillColor=none;align=left;verticalAlign=middle;spacingLeft=4;spacingRight=4;overflow=hidden;points=[[0,0.5],[1,0.5]];portConstraint=eastwest;rotatable=0;" parent="nSRQZIyI5lkoN6vEXMfe-2" vertex="1">
          <mxGeometry y="90" width="165" height="30" as="geometry" />
        </mxCell>
        <mxCell id="nSRQZIyI5lkoN6vEXMfe-6" value="4.  PS_PERS_NID" style="text;strokeColor=none;fillColor=none;align=left;verticalAlign=middle;spacingLeft=4;spacingRight=4;overflow=hidden;points=[[0,0.5],[1,0.5]];portConstraint=eastwest;rotatable=0;" parent="nSRQZIyI5lkoN6vEXMfe-2" vertex="1">
          <mxGeometry y="120" width="165" height="30" as="geometry" />
        </mxCell>
        <mxCell id="nSRQZIyI5lkoN6vEXMfe-7" value="5.  PS_PERS_DATA_EFFDT" style="text;strokeColor=none;fillColor=none;align=left;verticalAlign=middle;spacingLeft=4;spacingRight=4;overflow=hidden;points=[[0,0.5],[1,0.5]];portConstraint=eastwest;rotatable=0;" parent="nSRQZIyI5lkoN6vEXMfe-2" vertex="1">
          <mxGeometry y="150" width="165" height="30" as="geometry" />
        </mxCell>
        <mxCell id="nSRQZIyI5lkoN6vEXMfe-8" value="6.  PS_NAMES" style="text;strokeColor=none;fillColor=none;align=left;verticalAlign=middle;spacingLeft=4;spacingRight=4;overflow=hidden;points=[[0,0.5],[1,0.5]];portConstraint=eastwest;rotatable=0;" parent="nSRQZIyI5lkoN6vEXMfe-2" vertex="1">
          <mxGeometry y="180" width="165" height="30" as="geometry" />
        </mxCell>
        <mxCell id="nSRQZIyI5lkoN6vEXMfe-9" value="7.  PS_PERSONAL_PHONE" style="text;strokeColor=none;fillColor=none;align=left;verticalAlign=middle;spacingLeft=4;spacingRight=4;overflow=hidden;points=[[0,0.5],[1,0.5]];portConstraint=eastwest;rotatable=0;" parent="nSRQZIyI5lkoN6vEXMfe-2" vertex="1">
          <mxGeometry y="210" width="165" height="30" as="geometry" />
        </mxCell>
        <mxCell id="nSRQZIyI5lkoN6vEXMfe-10" value="8.  PS_EMAIL_ADDRESS" style="text;strokeColor=none;fillColor=none;align=left;verticalAlign=middle;spacingLeft=4;spacingRight=4;overflow=hidden;points=[[0,0.5],[1,0.5]];portConstraint=eastwest;rotatable=0;" parent="nSRQZIyI5lkoN6vEXMfe-2" vertex="1">
          <mxGeometry y="240" width="165" height="30" as="geometry" />
        </mxCell>
        <mxCell id="nSRQZIyI5lkoN6vEXMfe-11" value="9.  PS_ADDRESSES" style="text;strokeColor=none;fillColor=none;align=left;verticalAlign=middle;spacingLeft=4;spacingRight=4;overflow=hidden;points=[[0,0.5],[1,0.5]];portConstraint=eastwest;rotatable=0;" parent="nSRQZIyI5lkoN6vEXMfe-2" vertex="1">
          <mxGeometry y="270" width="165" height="30" as="geometry" />
        </mxCell>
        <mxCell id="nSRQZIyI5lkoN6vEXMfe-12" value="10.  PS_DIVERS_ETHNIC" style="text;strokeColor=none;fillColor=none;align=left;verticalAlign=middle;spacingLeft=4;spacingRight=4;overflow=hidden;points=[[0,0.5],[1,0.5]];portConstraint=eastwest;rotatable=0;" parent="nSRQZIyI5lkoN6vEXMfe-2" vertex="1">
          <mxGeometry y="300" width="165" height="30" as="geometry" />
        </mxCell>
        <mxCell id="nSRQZIyI5lkoN6vEXMfe-13" value="11.  PS_CITIZENSHIP" style="text;strokeColor=none;fillColor=none;align=left;verticalAlign=middle;spacingLeft=4;spacingRight=4;overflow=hidden;points=[[0,0.5],[1,0.5]];portConstraint=eastwest;rotatable=0;" parent="nSRQZIyI5lkoN6vEXMfe-2" vertex="1">
          <mxGeometry y="330" width="165" height="30" as="geometry" />
        </mxCell>
        <mxCell id="nSRQZIyI5lkoN6vEXMfe-14" value="12.  PS_N__AFFILIATIONS" style="text;strokeColor=none;fillColor=none;align=left;verticalAlign=middle;spacingLeft=4;spacingRight=4;overflow=hidden;points=[[0,0.5],[1,0.5]];portConstraint=eastwest;rotatable=0;" parent="nSRQZIyI5lkoN6vEXMfe-2" vertex="1">
          <mxGeometry y="360" width="165" height="30" as="geometry" />
        </mxCell>
        <mxCell id="nSRQZIyI5lkoN6vEXMfe-15" value="13.  PS_SRVC_IND_DATA" style="text;strokeColor=none;fillColor=none;align=left;verticalAlign=middle;spacingLeft=4;spacingRight=4;overflow=hidden;points=[[0,0.5],[1,0.5]];portConstraint=eastwest;rotatable=0;" parent="nSRQZIyI5lkoN6vEXMfe-2" vertex="1">
          <mxGeometry y="390" width="165" height="30" as="geometry" />
        </mxCell>
        <mxCell id="nSRQZIyI5lkoN6vEXMfe-16" value="" style="shape=link;html=1;rounded=0;entryX=0;entryY=0.5;entryDx=0;entryDy=0;" parent="1" target="nSRQZIyI5lkoN6vEXMfe-8" edge="1">
          <mxGeometry width="100" relative="1" as="geometry">
            <mxPoint x="-2410" y="1335" as="sourcePoint" />
            <mxPoint x="-2340" y="1334.5" as="targetPoint" />
          </mxGeometry>
        </mxCell>
        <mxCell id="nSRQZIyI5lkoN6vEXMfe-17" value="" style="endArrow=classic;html=1;rounded=0;exitX=1;exitY=0.5;exitDx=0;exitDy=0;entryX=-0.001;entryY=0.377;entryDx=0;entryDy=0;entryPerimeter=0;" parent="1" source="nSRQZIyI5lkoN6vEXMfe-3" target="nSRQZIyI5lkoN6vEXMfe-18" edge="1">
          <mxGeometry width="50" height="50" relative="1" as="geometry">
            <mxPoint x="-2030" y="1420" as="sourcePoint" />
            <mxPoint x="-2181.84" y="1185" as="targetPoint" />
          </mxGeometry>
        </mxCell>
        <mxCell id="nSRQZIyI5lkoN6vEXMfe-18" value="Integration" style="swimlane;horizontal=0;" parent="1" vertex="1">
          <mxGeometry x="-2170" y="1140" width="1410" height="120" as="geometry" />
        </mxCell>
        <mxCell id="nSRQZIyI5lkoN6vEXMfe-19" value="" style="group" parent="nSRQZIyI5lkoN6vEXMfe-18" vertex="1" connectable="0">
          <mxGeometry x="50" y="20" width="1330" height="80" as="geometry" />
        </mxCell>
        <mxCell id="nSRQZIyI5lkoN6vEXMfe-20" value="" style="fontSize=12;html=1;endArrow=none;startArrow=ERmany;rounded=0;startSize=6;endSize=6;sourcePerimeterSpacing=0;endFill=0;exitX=1;exitY=0.5;exitDx=0;exitDy=0;" parent="nSRQZIyI5lkoN6vEXMfe-19" source="nSRQZIyI5lkoN6vEXMfe-22" edge="1">
          <mxGeometry width="100" height="100" relative="1" as="geometry">
            <mxPoint x="630" y="-35" as="sourcePoint" />
            <mxPoint x="490" y="40" as="targetPoint" />
          </mxGeometry>
        </mxCell>
        <mxCell id="nSRQZIyI5lkoN6vEXMfe-21" value="PS_PERSON&lt;br&gt;Dummy MV&lt;br&gt;DMV_PS_PERSON" style="rounded=1;whiteSpace=wrap;html=1;container=0;" parent="nSRQZIyI5lkoN6vEXMfe-19" vertex="1">
          <mxGeometry x="1090" y="10" width="120" height="60" as="geometry" />
        </mxCell>
        <mxCell id="nSRQZIyI5lkoN6vEXMfe-22" value="PS_PERSON&lt;br&gt;MV Log&lt;br&gt;mlog$_PS_PERSON" style="rounded=1;whiteSpace=wrap;html=1;container=0;" parent="nSRQZIyI5lkoN6vEXMfe-19" vertex="1">
          <mxGeometry x="300" y="10" width="120" height="60" as="geometry" />
        </mxCell>
        <mxCell id="nSRQZIyI5lkoN6vEXMfe-23" value="PS_PERSON&lt;br&gt;Source Table&lt;br&gt;PS_PERSON" style="rounded=1;whiteSpace=wrap;html=1;container=0;" parent="nSRQZIyI5lkoN6vEXMfe-19" vertex="1">
          <mxGeometry x="110" y="10" width="120" height="60" as="geometry" />
        </mxCell>
        <mxCell id="nSRQZIyI5lkoN6vEXMfe-24" value="Actor" style="shape=umlActor;verticalLabelPosition=bottom;verticalAlign=top;html=1;outlineConnect=0;container=0;" parent="nSRQZIyI5lkoN6vEXMfe-19" vertex="1">
          <mxGeometry y="10" width="40" height="60" as="geometry" />
        </mxCell>
        <mxCell id="nSRQZIyI5lkoN6vEXMfe-25" value="&lt;span style=&quot;color: rgb(0, 0, 0); font-family: Helvetica; font-size: 12px; font-style: normal; font-variant-ligatures: normal; font-variant-caps: normal; font-weight: 400; letter-spacing: normal; orphans: 2; text-align: center; text-indent: 0px; text-transform: none; widows: 2; word-spacing: 0px; -webkit-text-stroke-width: 0px; background-color: rgb(248, 249, 250); text-decoration-thickness: initial; text-decoration-style: initial; text-decoration-color: initial; float: none; display: inline !important;&quot;&gt;Data &lt;br&gt;Change&lt;/span&gt;" style="endArrow=classic;html=1;rounded=0;exitX=0.5;exitY=0.5;exitDx=0;exitDy=0;exitPerimeter=0;entryX=0;entryY=0.5;entryDx=0;entryDy=0;" parent="nSRQZIyI5lkoN6vEXMfe-19" source="nSRQZIyI5lkoN6vEXMfe-24" target="nSRQZIyI5lkoN6vEXMfe-23" edge="1">
          <mxGeometry width="50" height="50" relative="1" as="geometry">
            <mxPoint x="70" y="-20" as="sourcePoint" />
            <mxPoint x="120" y="-70" as="targetPoint" />
          </mxGeometry>
        </mxCell>
        <mxCell id="nSRQZIyI5lkoN6vEXMfe-26" value="Insert&lt;br&gt;Update&lt;br&gt;Delete" style="endArrow=classic;html=1;rounded=0;exitX=1;exitY=0.5;exitDx=0;exitDy=0;entryX=0;entryY=0.5;entryDx=0;entryDy=0;" parent="nSRQZIyI5lkoN6vEXMfe-19" source="nSRQZIyI5lkoN6vEXMfe-23" target="nSRQZIyI5lkoN6vEXMfe-22" edge="1">
          <mxGeometry width="50" height="50" relative="1" as="geometry">
            <mxPoint x="240" y="240" as="sourcePoint" />
            <mxPoint x="290" y="190" as="targetPoint" />
          </mxGeometry>
        </mxCell>
        <mxCell id="nSRQZIyI5lkoN6vEXMfe-27" value="Informatica&lt;br&gt;Integration" style="ellipse;shape=cloud;whiteSpace=wrap;html=1;container=0;" parent="nSRQZIyI5lkoN6vEXMfe-19" vertex="1">
          <mxGeometry x="460" width="120" height="80" as="geometry" />
        </mxCell>
        <mxCell id="nSRQZIyI5lkoN6vEXMfe-28" value="Salesforce&lt;br&gt;Object&lt;br&gt;CONTACT" style="rounded=1;whiteSpace=wrap;html=1;container=0;" parent="nSRQZIyI5lkoN6vEXMfe-19" vertex="1">
          <mxGeometry x="620" y="10" width="120" height="60" as="geometry" />
        </mxCell>
        <mxCell id="nSRQZIyI5lkoN6vEXMfe-29" value="" style="endArrow=classic;html=1;rounded=0;startSize=6;endSize=6;sourcePerimeterSpacing=0;exitX=0.875;exitY=0.5;exitDx=0;exitDy=0;exitPerimeter=0;entryX=0;entryY=0.5;entryDx=0;entryDy=0;" parent="nSRQZIyI5lkoN6vEXMfe-19" source="nSRQZIyI5lkoN6vEXMfe-27" target="nSRQZIyI5lkoN6vEXMfe-28" edge="1">
          <mxGeometry width="50" height="50" relative="1" as="geometry">
            <mxPoint x="580" y="200" as="sourcePoint" />
            <mxPoint x="630" y="150" as="targetPoint" />
          </mxGeometry>
        </mxCell>
        <mxCell id="nSRQZIyI5lkoN6vEXMfe-30" value="" style="rhombus;whiteSpace=wrap;html=1;container=0;" parent="nSRQZIyI5lkoN6vEXMfe-19" vertex="1">
          <mxGeometry x="810" width="80" height="80" as="geometry" />
        </mxCell>
        <mxCell id="nSRQZIyI5lkoN6vEXMfe-31" value="Is 12AM?" style="endArrow=classic;html=1;rounded=0;startSize=6;endSize=6;sourcePerimeterSpacing=0;exitX=1;exitY=0.5;exitDx=0;exitDy=0;entryX=0;entryY=0.5;entryDx=0;entryDy=0;" parent="nSRQZIyI5lkoN6vEXMfe-19" source="nSRQZIyI5lkoN6vEXMfe-28" target="nSRQZIyI5lkoN6vEXMfe-30" edge="1">
          <mxGeometry width="50" height="50" relative="1" as="geometry">
            <mxPoint x="710" y="150" as="sourcePoint" />
            <mxPoint x="760" y="100" as="targetPoint" />
          </mxGeometry>
        </mxCell>
        <mxCell id="nSRQZIyI5lkoN6vEXMfe-32" value="Yes" style="endArrow=classic;html=1;rounded=0;startSize=6;endSize=6;sourcePerimeterSpacing=0;exitX=1;exitY=0.5;exitDx=0;exitDy=0;entryX=0;entryY=0.5;entryDx=0;entryDy=0;" parent="nSRQZIyI5lkoN6vEXMfe-19" source="nSRQZIyI5lkoN6vEXMfe-30" target="nSRQZIyI5lkoN6vEXMfe-33" edge="1">
          <mxGeometry width="50" height="50" relative="1" as="geometry">
            <mxPoint x="720" y="350" as="sourcePoint" />
            <mxPoint x="770" y="300" as="targetPoint" />
          </mxGeometry>
        </mxCell>
        <mxCell id="nSRQZIyI5lkoN6vEXMfe-33" value="Refresh MV&lt;br&gt;-Clears MV Log-" style="shape=process;whiteSpace=wrap;html=1;backgroundOutline=1;container=0;" parent="nSRQZIyI5lkoN6vEXMfe-19" vertex="1">
          <mxGeometry x="930" y="10" width="120" height="60" as="geometry" />
        </mxCell>
        <mxCell id="nSRQZIyI5lkoN6vEXMfe-34" value="" style="endArrow=classic;html=1;rounded=0;startSize=6;endSize=6;sourcePerimeterSpacing=0;exitX=1;exitY=0.5;exitDx=0;exitDy=0;entryX=0;entryY=0.5;entryDx=0;entryDy=0;" parent="nSRQZIyI5lkoN6vEXMfe-19" source="nSRQZIyI5lkoN6vEXMfe-33" target="nSRQZIyI5lkoN6vEXMfe-21" edge="1">
          <mxGeometry width="50" height="50" relative="1" as="geometry">
            <mxPoint x="810" y="310" as="sourcePoint" />
            <mxPoint x="860" y="260" as="targetPoint" />
          </mxGeometry>
        </mxCell>
        <mxCell id="nSRQZIyI5lkoN6vEXMfe-35" value="END" style="ellipse;whiteSpace=wrap;html=1;aspect=fixed;container=0;" parent="nSRQZIyI5lkoN6vEXMfe-19" vertex="1">
          <mxGeometry x="1250" width="80" height="80" as="geometry" />
        </mxCell>
        <mxCell id="nSRQZIyI5lkoN6vEXMfe-36" value="" style="endArrow=classic;html=1;rounded=0;startSize=6;endSize=6;sourcePerimeterSpacing=0;exitX=1;exitY=0.5;exitDx=0;exitDy=0;entryX=0;entryY=0.5;entryDx=0;entryDy=0;" parent="nSRQZIyI5lkoN6vEXMfe-19" source="nSRQZIyI5lkoN6vEXMfe-21" target="nSRQZIyI5lkoN6vEXMfe-35" edge="1">
          <mxGeometry width="50" height="50" relative="1" as="geometry">
            <mxPoint x="640" y="220" as="sourcePoint" />
            <mxPoint x="690" y="170" as="targetPoint" />
          </mxGeometry>
        </mxCell>
        <mxCell id="nSRQZIyI5lkoN6vEXMfe-37" value="" style="endArrow=classic;html=1;rounded=0;startSize=6;endSize=6;sourcePerimeterSpacing=0;jumpStyle=arc;exitX=0.55;exitY=0.95;exitDx=0;exitDy=0;exitPerimeter=0;" parent="1" source="nSRQZIyI5lkoN6vEXMfe-27" edge="1">
          <mxGeometry width="50" height="50" relative="1" as="geometry">
            <mxPoint x="-1680" y="1010" as="sourcePoint" />
            <mxPoint x="-1594" y="1300" as="targetPoint" />
          </mxGeometry>
        </mxCell>
        <mxCell id="nSRQZIyI5lkoN6vEXMfe-38" value="" style="group" parent="1" vertex="1" connectable="0">
          <mxGeometry x="-2170" y="1300" width="1080" height="380" as="geometry" />
        </mxCell>
        <mxCell id="nSRQZIyI5lkoN6vEXMfe-39" value="Informatica Integration Process" style="swimlane;horizontal=0;container=0;" parent="nSRQZIyI5lkoN6vEXMfe-38" vertex="1">
          <mxGeometry width="1080" height="380" as="geometry" />
        </mxCell>
        <mxCell id="nSRQZIyI5lkoN6vEXMfe-40" value="mlog$_PS_PERSON" style="swimlane;fontStyle=1;childLayout=stackLayout;horizontal=1;startSize=30;horizontalStack=0;resizeParent=1;resizeParentMax=0;resizeLast=0;collapsible=1;marginBottom=0;container=0;" parent="nSRQZIyI5lkoN6vEXMfe-38" vertex="1">
          <mxGeometry x="40" y="85" width="220" height="210" as="geometry" />
        </mxCell>
        <mxCell id="nSRQZIyI5lkoN6vEXMfe-41" value="Aggregated Source Data" style="swimlane;fontStyle=1;childLayout=stackLayout;horizontal=1;startSize=30;horizontalStack=0;resizeParent=1;resizeParentMax=0;resizeLast=0;collapsible=1;marginBottom=0;container=0;" parent="nSRQZIyI5lkoN6vEXMfe-38" vertex="1">
          <mxGeometry x="540" y="105" width="240" height="170" as="geometry" />
        </mxCell>
        <mxCell id="nSRQZIyI5lkoN6vEXMfe-42" value="SF Contact Target Object" style="swimlane;fontStyle=1;childLayout=stackLayout;horizontal=1;startSize=30;horizontalStack=0;resizeParent=1;resizeParentMax=0;resizeLast=0;collapsible=1;marginBottom=0;container=0;" parent="nSRQZIyI5lkoN6vEXMfe-38" vertex="1">
          <mxGeometry x="820" y="105" width="240" height="170" as="geometry" />
        </mxCell>
        <mxCell id="nSRQZIyI5lkoN6vEXMfe-43" value="Transformations" style="swimlane;container=0;" parent="nSRQZIyI5lkoN6vEXMfe-38" vertex="1">
          <mxGeometry x="300" y="10" width="200" height="360" as="geometry" />
        </mxCell>
        <mxCell id="nSRQZIyI5lkoN6vEXMfe-44" value="1.  EMPLID::             Varchar" style="text;strokeColor=none;fillColor=none;align=left;verticalAlign=middle;spacingLeft=4;spacingRight=4;overflow=hidden;points=[[0,0.5],[1,0.5]];portConstraint=eastwest;rotatable=0;container=0;" parent="nSRQZIyI5lkoN6vEXMfe-38" vertex="1">
          <mxGeometry x="40" y="115" width="220" height="30" as="geometry" />
        </mxCell>
        <mxCell id="nSRQZIyI5lkoN6vEXMfe-45" value="2.  BIRTHDATE::       Date" style="text;strokeColor=none;fillColor=none;align=left;verticalAlign=middle;spacingLeft=4;spacingRight=4;overflow=hidden;points=[[0,0.5],[1,0.5]];portConstraint=eastwest;rotatable=0;container=0;" parent="nSRQZIyI5lkoN6vEXMfe-38" vertex="1">
          <mxGeometry x="40" y="145" width="220" height="30" as="geometry" />
        </mxCell>
        <mxCell id="nSRQZIyI5lkoN6vEXMfe-46" value="3.  DT_OF_DEATH::  Date" style="text;strokeColor=none;fillColor=none;align=left;verticalAlign=middle;spacingLeft=4;spacingRight=4;overflow=hidden;points=[[0,0.5],[1,0.5]];portConstraint=eastwest;rotatable=0;container=0;" parent="nSRQZIyI5lkoN6vEXMfe-38" vertex="1">
          <mxGeometry x="40" y="175" width="220" height="30" as="geometry" />
        </mxCell>
        <mxCell id="nSRQZIyI5lkoN6vEXMfe-47" value="4.  DMLTYPE$$::       Varchar" style="text;strokeColor=none;fillColor=none;align=left;verticalAlign=middle;spacingLeft=4;spacingRight=4;overflow=hidden;points=[[0,0.5],[1,0.5]];portConstraint=eastwest;rotatable=0;container=0;" parent="nSRQZIyI5lkoN6vEXMfe-38" vertex="1">
          <mxGeometry x="40" y="205" width="220" height="30" as="geometry" />
        </mxCell>
        <mxCell id="nSRQZIyI5lkoN6vEXMfe-48" value="5.  SEQUENCE$$::    Integer" style="text;strokeColor=none;fillColor=none;align=left;verticalAlign=middle;spacingLeft=4;spacingRight=4;overflow=hidden;points=[[0,0.5],[1,0.5]];portConstraint=eastwest;rotatable=0;container=0;" parent="nSRQZIyI5lkoN6vEXMfe-38" vertex="1">
          <mxGeometry x="40" y="235" width="220" height="30" as="geometry" />
        </mxCell>
        <mxCell id="nSRQZIyI5lkoN6vEXMfe-49" value="6.  OLD_NEW$$::       Varchar" style="text;strokeColor=none;fillColor=none;align=left;verticalAlign=middle;spacingLeft=4;spacingRight=4;overflow=hidden;points=[[0,0.5],[1,0.5]];portConstraint=eastwest;rotatable=0;container=0;" parent="nSRQZIyI5lkoN6vEXMfe-38" vertex="1">
          <mxGeometry x="40" y="265" width="220" height="30" as="geometry" />
        </mxCell>
        <mxCell id="nSRQZIyI5lkoN6vEXMfe-50" value="1.  EMPLID::             Varchar" style="text;strokeColor=none;fillColor=none;align=left;verticalAlign=middle;spacingLeft=4;spacingRight=4;overflow=hidden;points=[[0,0.5],[1,0.5]];portConstraint=eastwest;rotatable=0;container=0;" parent="nSRQZIyI5lkoN6vEXMfe-38" vertex="1">
          <mxGeometry x="540" y="135" width="240" height="30" as="geometry" />
        </mxCell>
        <mxCell id="nSRQZIyI5lkoN6vEXMfe-51" value="2.  BIRTHDATE::      Date" style="text;strokeColor=none;fillColor=none;align=left;verticalAlign=middle;spacingLeft=4;spacingRight=4;overflow=hidden;points=[[0,0.5],[1,0.5]];portConstraint=eastwest;rotatable=0;container=0;" parent="nSRQZIyI5lkoN6vEXMfe-38" vertex="1">
          <mxGeometry x="540" y="165" width="240" height="30" as="geometry" />
        </mxCell>
        <mxCell id="nSRQZIyI5lkoN6vEXMfe-52" value="3.  DT_OF_DEATH:: Boolean" style="text;strokeColor=none;fillColor=none;align=left;verticalAlign=middle;spacingLeft=4;spacingRight=4;overflow=hidden;points=[[0,0.5],[1,0.5]];portConstraint=eastwest;rotatable=0;container=0;" parent="nSRQZIyI5lkoN6vEXMfe-38" vertex="1">
          <mxGeometry x="540" y="195" width="240" height="30" as="geometry" />
        </mxCell>
        <mxCell id="nSRQZIyI5lkoN6vEXMfe-53" value="Notes:&#xa;DMLTYPE / SEQUENCE / OLD_NEW&#xa;Used to Filter / Aggregate Data" style="text;strokeColor=none;fillColor=none;align=left;verticalAlign=middle;spacingLeft=4;spacingRight=4;overflow=hidden;points=[[0,0.5],[1,0.5]];portConstraint=eastwest;rotatable=0;container=0;" parent="nSRQZIyI5lkoN6vEXMfe-38" vertex="1">
          <mxGeometry x="540" y="225" width="240" height="50" as="geometry" />
        </mxCell>
        <mxCell id="nSRQZIyI5lkoN6vEXMfe-54" value="1.  EMPLID__C::             Text" style="text;strokeColor=none;fillColor=none;align=left;verticalAlign=middle;spacingLeft=4;spacingRight=4;overflow=hidden;points=[[0,0.5],[1,0.5]];portConstraint=eastwest;rotatable=0;container=0;" parent="nSRQZIyI5lkoN6vEXMfe-38" vertex="1">
          <mxGeometry x="820" y="135" width="240" height="30" as="geometry" />
        </mxCell>
        <mxCell id="nSRQZIyI5lkoN6vEXMfe-55" value="" style="endArrow=classic;html=1;rounded=0;startSize=6;endSize=6;sourcePerimeterSpacing=0;exitX=1;exitY=0.5;exitDx=0;exitDy=0;entryX=0;entryY=0.5;entryDx=0;entryDy=0;" parent="nSRQZIyI5lkoN6vEXMfe-38" source="nSRQZIyI5lkoN6vEXMfe-50" target="nSRQZIyI5lkoN6vEXMfe-54" edge="1">
          <mxGeometry width="50" height="50" relative="1" as="geometry">
            <mxPoint x="960" y="405" as="sourcePoint" />
            <mxPoint x="1010" y="355" as="targetPoint" />
          </mxGeometry>
        </mxCell>
        <mxCell id="nSRQZIyI5lkoN6vEXMfe-56" value="2.  Birthdate__c::             Date" style="text;strokeColor=none;fillColor=none;align=left;verticalAlign=middle;spacingLeft=4;spacingRight=4;overflow=hidden;points=[[0,0.5],[1,0.5]];portConstraint=eastwest;rotatable=0;container=0;" parent="nSRQZIyI5lkoN6vEXMfe-38" vertex="1">
          <mxGeometry x="820" y="165" width="240" height="30" as="geometry" />
        </mxCell>
        <mxCell id="nSRQZIyI5lkoN6vEXMfe-57" value="" style="endArrow=classic;html=1;rounded=0;startSize=6;endSize=6;sourcePerimeterSpacing=0;exitX=1;exitY=0.5;exitDx=0;exitDy=0;entryX=0;entryY=0.5;entryDx=0;entryDy=0;" parent="nSRQZIyI5lkoN6vEXMfe-38" source="nSRQZIyI5lkoN6vEXMfe-51" target="nSRQZIyI5lkoN6vEXMfe-56" edge="1">
          <mxGeometry width="50" height="50" relative="1" as="geometry">
            <mxPoint x="740" y="335" as="sourcePoint" />
            <mxPoint x="790" y="285" as="targetPoint" />
          </mxGeometry>
        </mxCell>
        <mxCell id="nSRQZIyI5lkoN6vEXMfe-58" value="3.  hed__Deceased__c:: Boolean" style="text;strokeColor=none;fillColor=none;align=left;verticalAlign=middle;spacingLeft=4;spacingRight=4;overflow=hidden;points=[[0,0.5],[1,0.5]];portConstraint=eastwest;rotatable=0;container=0;" parent="nSRQZIyI5lkoN6vEXMfe-38" vertex="1">
          <mxGeometry x="820" y="195" width="240" height="30" as="geometry" />
        </mxCell>
        <mxCell id="nSRQZIyI5lkoN6vEXMfe-59" value="" style="endArrow=classic;html=1;rounded=0;startSize=6;endSize=6;sourcePerimeterSpacing=0;exitX=1;exitY=0.5;exitDx=0;exitDy=0;entryX=0;entryY=0.5;entryDx=0;entryDy=0;" parent="nSRQZIyI5lkoN6vEXMfe-38" source="nSRQZIyI5lkoN6vEXMfe-52" target="nSRQZIyI5lkoN6vEXMfe-58" edge="1">
          <mxGeometry width="50" height="50" relative="1" as="geometry">
            <mxPoint x="840" y="355" as="sourcePoint" />
            <mxPoint x="890" y="305" as="targetPoint" />
          </mxGeometry>
        </mxCell>
        <mxCell id="nSRQZIyI5lkoN6vEXMfe-60" value="Notes:&#xa;DMLTYPE / SEQUENCE / OLD_NEW&#xa;Used to Filter / Aggregate Data" style="text;strokeColor=none;fillColor=none;align=left;verticalAlign=middle;spacingLeft=4;spacingRight=4;overflow=hidden;points=[[0,0.5],[1,0.5]];portConstraint=eastwest;rotatable=0;container=0;" parent="nSRQZIyI5lkoN6vEXMfe-38" vertex="1">
          <mxGeometry x="820" y="225" width="240" height="50" as="geometry" />
        </mxCell>
        <mxCell id="nSRQZIyI5lkoN6vEXMfe-61" value="EMPLID&lt;br&gt;Primary Key" style="rounded=0;whiteSpace=wrap;html=1;container=0;" parent="nSRQZIyI5lkoN6vEXMfe-38" vertex="1">
          <mxGeometry x="340" y="40" width="120" height="30" as="geometry" />
        </mxCell>
        <mxCell id="nSRQZIyI5lkoN6vEXMfe-62" value="" style="fontSize=12;html=1;endArrow=none;startArrow=ERmany;rounded=0;startSize=6;endSize=6;sourcePerimeterSpacing=0;endFill=0;exitX=1;exitY=0.5;exitDx=0;exitDy=0;entryX=0;entryY=0.5;entryDx=0;entryDy=0;jumpStyle=arc;" parent="nSRQZIyI5lkoN6vEXMfe-38" source="nSRQZIyI5lkoN6vEXMfe-44" target="nSRQZIyI5lkoN6vEXMfe-61" edge="1">
          <mxGeometry width="100" height="100" relative="1" as="geometry">
            <mxPoint x="1120" y="445" as="sourcePoint" />
            <mxPoint x="1220" y="345" as="targetPoint" />
          </mxGeometry>
        </mxCell>
        <mxCell id="nSRQZIyI5lkoN6vEXMfe-63" value="" style="endArrow=classic;html=1;rounded=0;startSize=6;endSize=6;sourcePerimeterSpacing=0;exitX=1;exitY=0.5;exitDx=0;exitDy=0;entryX=0;entryY=0.5;entryDx=0;entryDy=0;jumpStyle=arc;" parent="nSRQZIyI5lkoN6vEXMfe-38" source="nSRQZIyI5lkoN6vEXMfe-61" target="nSRQZIyI5lkoN6vEXMfe-50" edge="1">
          <mxGeometry width="50" height="50" relative="1" as="geometry">
            <mxPoint x="840" y="465" as="sourcePoint" />
            <mxPoint x="890" y="415" as="targetPoint" />
          </mxGeometry>
        </mxCell>
        <mxCell id="nSRQZIyI5lkoN6vEXMfe-64" value="BIRTHDATE&lt;br&gt;Date" style="rounded=0;whiteSpace=wrap;html=1;container=0;" parent="nSRQZIyI5lkoN6vEXMfe-38" vertex="1">
          <mxGeometry x="340" y="80" width="120" height="30" as="geometry" />
        </mxCell>
        <mxCell id="nSRQZIyI5lkoN6vEXMfe-65" value="" style="fontSize=12;html=1;endArrow=none;startArrow=ERmany;rounded=0;startSize=6;endSize=6;sourcePerimeterSpacing=0;endFill=0;exitX=1;exitY=0.5;exitDx=0;exitDy=0;entryX=0;entryY=0.5;entryDx=0;entryDy=0;jumpStyle=arc;" parent="nSRQZIyI5lkoN6vEXMfe-38" source="nSRQZIyI5lkoN6vEXMfe-45" target="nSRQZIyI5lkoN6vEXMfe-64" edge="1">
          <mxGeometry width="100" height="100" relative="1" as="geometry">
            <mxPoint x="1130" y="455" as="sourcePoint" />
            <mxPoint x="1230" y="355" as="targetPoint" />
          </mxGeometry>
        </mxCell>
        <mxCell id="nSRQZIyI5lkoN6vEXMfe-66" value="" style="endArrow=classic;html=1;rounded=0;startSize=6;endSize=6;sourcePerimeterSpacing=0;exitX=1;exitY=0.5;exitDx=0;exitDy=0;entryX=0;entryY=0.5;entryDx=0;entryDy=0;jumpStyle=arc;" parent="nSRQZIyI5lkoN6vEXMfe-38" source="nSRQZIyI5lkoN6vEXMfe-64" target="nSRQZIyI5lkoN6vEXMfe-51" edge="1">
          <mxGeometry width="50" height="50" relative="1" as="geometry">
            <mxPoint x="790" y="415" as="sourcePoint" />
            <mxPoint x="840" y="365" as="targetPoint" />
          </mxGeometry>
        </mxCell>
        <mxCell id="nSRQZIyI5lkoN6vEXMfe-67" value="DT_OF_DEATH&lt;br&gt;Transformed to Bool&lt;br&gt;If NULL then 0 else 1" style="rounded=0;whiteSpace=wrap;html=1;container=0;" parent="nSRQZIyI5lkoN6vEXMfe-38" vertex="1">
          <mxGeometry x="340" y="120" width="120" height="50" as="geometry" />
        </mxCell>
        <mxCell id="nSRQZIyI5lkoN6vEXMfe-68" value="" style="fontSize=12;html=1;endArrow=none;startArrow=ERmany;rounded=0;startSize=6;endSize=6;sourcePerimeterSpacing=0;endFill=0;exitX=1;exitY=0.5;exitDx=0;exitDy=0;entryX=0;entryY=0.5;entryDx=0;entryDy=0;jumpStyle=arc;" parent="nSRQZIyI5lkoN6vEXMfe-38" source="nSRQZIyI5lkoN6vEXMfe-46" target="nSRQZIyI5lkoN6vEXMfe-67" edge="1">
          <mxGeometry width="100" height="100" relative="1" as="geometry">
            <mxPoint x="1140" y="465" as="sourcePoint" />
            <mxPoint x="1240" y="365" as="targetPoint" />
          </mxGeometry>
        </mxCell>
        <mxCell id="nSRQZIyI5lkoN6vEXMfe-69" value="" style="endArrow=classic;html=1;rounded=0;startSize=6;endSize=6;sourcePerimeterSpacing=0;exitX=1;exitY=0.5;exitDx=0;exitDy=0;entryX=0;entryY=0.5;entryDx=0;entryDy=0;jumpStyle=arc;" parent="nSRQZIyI5lkoN6vEXMfe-38" source="nSRQZIyI5lkoN6vEXMfe-67" target="nSRQZIyI5lkoN6vEXMfe-52" edge="1">
          <mxGeometry width="50" height="50" relative="1" as="geometry">
            <mxPoint x="730" y="395" as="sourcePoint" />
            <mxPoint x="780" y="345" as="targetPoint" />
          </mxGeometry>
        </mxCell>
        <mxCell id="nSRQZIyI5lkoN6vEXMfe-70" value="DMLTYPE$$&lt;br&gt;Router Logic&lt;br&gt;If DEL then UPD null&lt;br&gt;else UPD w/ value" style="rounded=0;whiteSpace=wrap;html=1;container=0;" parent="nSRQZIyI5lkoN6vEXMfe-38" vertex="1">
          <mxGeometry x="340" y="180" width="120" height="60" as="geometry" />
        </mxCell>
        <mxCell id="nSRQZIyI5lkoN6vEXMfe-71" value="" style="fontSize=12;html=1;endArrow=none;startArrow=ERmany;rounded=0;startSize=6;endSize=6;sourcePerimeterSpacing=0;endFill=0;exitX=1;exitY=0.5;exitDx=0;exitDy=0;entryX=0;entryY=0.5;entryDx=0;entryDy=0;jumpStyle=arc;" parent="nSRQZIyI5lkoN6vEXMfe-38" source="nSRQZIyI5lkoN6vEXMfe-47" target="nSRQZIyI5lkoN6vEXMfe-70" edge="1">
          <mxGeometry width="100" height="100" relative="1" as="geometry">
            <mxPoint x="1150" y="475" as="sourcePoint" />
            <mxPoint x="1250" y="375" as="targetPoint" />
          </mxGeometry>
        </mxCell>
        <mxCell id="nSRQZIyI5lkoN6vEXMfe-72" value="" style="endArrow=classic;html=1;rounded=0;startSize=6;endSize=6;sourcePerimeterSpacing=0;exitX=1;exitY=0.5;exitDx=0;exitDy=0;entryX=0;entryY=0.5;entryDx=0;entryDy=0;jumpStyle=arc;" parent="nSRQZIyI5lkoN6vEXMfe-38" source="nSRQZIyI5lkoN6vEXMfe-70" target="nSRQZIyI5lkoN6vEXMfe-53" edge="1">
          <mxGeometry width="50" height="50" relative="1" as="geometry">
            <mxPoint x="540" y="315" as="sourcePoint" />
            <mxPoint x="590" y="265" as="targetPoint" />
          </mxGeometry>
        </mxCell>
        <mxCell id="nSRQZIyI5lkoN6vEXMfe-73" value="SEQUENCE$$&lt;br&gt;Aggregator&lt;br&gt;Rank by SEQ, SEL 1" style="rounded=0;whiteSpace=wrap;html=1;container=0;" parent="nSRQZIyI5lkoN6vEXMfe-38" vertex="1">
          <mxGeometry x="340" y="250" width="120" height="50" as="geometry" />
        </mxCell>
        <mxCell id="nSRQZIyI5lkoN6vEXMfe-74" value="" style="fontSize=12;html=1;endArrow=none;startArrow=ERmany;rounded=0;startSize=6;endSize=6;sourcePerimeterSpacing=0;endFill=0;exitX=1;exitY=0.5;exitDx=0;exitDy=0;entryX=0;entryY=0.5;entryDx=0;entryDy=0;jumpStyle=arc;" parent="nSRQZIyI5lkoN6vEXMfe-38" source="nSRQZIyI5lkoN6vEXMfe-48" target="nSRQZIyI5lkoN6vEXMfe-73" edge="1">
          <mxGeometry width="100" height="100" relative="1" as="geometry">
            <mxPoint x="1160" y="485" as="sourcePoint" />
            <mxPoint x="1260" y="385" as="targetPoint" />
          </mxGeometry>
        </mxCell>
        <mxCell id="nSRQZIyI5lkoN6vEXMfe-75" value="" style="endArrow=classic;html=1;rounded=0;startSize=6;endSize=6;sourcePerimeterSpacing=0;exitX=1;exitY=0.5;exitDx=0;exitDy=0;entryX=0;entryY=0.5;entryDx=0;entryDy=0;jumpStyle=arc;" parent="nSRQZIyI5lkoN6vEXMfe-38" source="nSRQZIyI5lkoN6vEXMfe-73" target="nSRQZIyI5lkoN6vEXMfe-53" edge="1">
          <mxGeometry width="50" height="50" relative="1" as="geometry">
            <mxPoint x="620" y="345" as="sourcePoint" />
            <mxPoint x="660" y="275" as="targetPoint" />
          </mxGeometry>
        </mxCell>
        <mxCell id="nSRQZIyI5lkoN6vEXMfe-76" value="OLD_NEW$$&lt;br&gt;Filter Logic&lt;br&gt;INCL &quot;N&quot;, &quot;O&quot;" style="rounded=0;whiteSpace=wrap;html=1;container=0;" parent="nSRQZIyI5lkoN6vEXMfe-38" vertex="1">
          <mxGeometry x="340" y="310" width="120" height="50" as="geometry" />
        </mxCell>
        <mxCell id="nSRQZIyI5lkoN6vEXMfe-77" value="" style="fontSize=12;html=1;endArrow=none;startArrow=ERmany;rounded=0;startSize=6;endSize=6;sourcePerimeterSpacing=0;endFill=0;exitX=1;exitY=0.5;exitDx=0;exitDy=0;entryX=0;entryY=0.5;entryDx=0;entryDy=0;jumpStyle=arc;" parent="nSRQZIyI5lkoN6vEXMfe-38" source="nSRQZIyI5lkoN6vEXMfe-49" target="nSRQZIyI5lkoN6vEXMfe-76" edge="1">
          <mxGeometry width="100" height="100" relative="1" as="geometry">
            <mxPoint x="1170" y="495" as="sourcePoint" />
            <mxPoint x="1270" y="395" as="targetPoint" />
          </mxGeometry>
        </mxCell>
        <mxCell id="nSRQZIyI5lkoN6vEXMfe-78" value="" style="endArrow=classic;html=1;rounded=0;startSize=6;endSize=6;sourcePerimeterSpacing=0;exitX=1;exitY=0.5;exitDx=0;exitDy=0;entryX=0;entryY=0.5;entryDx=0;entryDy=0;jumpStyle=arc;" parent="nSRQZIyI5lkoN6vEXMfe-38" source="nSRQZIyI5lkoN6vEXMfe-76" target="nSRQZIyI5lkoN6vEXMfe-53" edge="1">
          <mxGeometry width="50" height="50" relative="1" as="geometry">
            <mxPoint x="810" y="435" as="sourcePoint" />
            <mxPoint x="860" y="385" as="targetPoint" />
          </mxGeometry>
        </mxCell>
        <mxCell id="nSRQZIyI5lkoN6vEXMfe-79" value="&lt;div style=&quot;&quot;&gt;Salesforce&lt;/div&gt;&lt;div style=&quot;&quot;&gt;Database&lt;br&gt;Contact Obj&lt;/div&gt;" style="shape=cylinder3;whiteSpace=wrap;html=1;boundedLbl=1;backgroundOutline=1;size=15;fontStyle=1" parent="1" vertex="1">
          <mxGeometry x="-1007" y="1310" width="76" height="115" as="geometry" />
        </mxCell>
        <mxCell id="nSRQZIyI5lkoN6vEXMfe-80" value="Salesforce" style="ellipse;shape=cloud;whiteSpace=wrap;html=1;container=0;fontStyle=1" parent="1" vertex="1">
          <mxGeometry x="-1050" y="1440" width="160" height="100" as="geometry" />
        </mxCell>
        <mxCell id="nSRQZIyI5lkoN6vEXMfe-81" value="" style="endArrow=classic;html=1;rounded=0;startSize=6;endSize=6;sourcePerimeterSpacing=0;jumpStyle=arc;exitX=0.16;exitY=0.55;exitDx=0;exitDy=0;exitPerimeter=0;startArrow=classic;startFill=1;" parent="1" source="nSRQZIyI5lkoN6vEXMfe-80" edge="1">
          <mxGeometry width="50" height="50" relative="1" as="geometry">
            <mxPoint x="-940" y="1670" as="sourcePoint" />
            <mxPoint x="-1109.9999999999995" y="1495" as="targetPoint" />
          </mxGeometry>
        </mxCell>
        <mxCell id="nSRQZIyI5lkoN6vEXMfe-82" value="" style="endArrow=classic;html=1;rounded=0;startSize=6;endSize=6;sourcePerimeterSpacing=0;jumpStyle=arc;exitX=0.506;exitY=0.13;exitDx=0;exitDy=0;exitPerimeter=0;startArrow=classic;startFill=1;entryX=0.5;entryY=1;entryDx=0;entryDy=0;entryPerimeter=0;" parent="1" source="nSRQZIyI5lkoN6vEXMfe-80" target="nSRQZIyI5lkoN6vEXMfe-79" edge="1">
          <mxGeometry width="50" height="50" relative="1" as="geometry">
            <mxPoint x="-1014.4000000000001" y="1505" as="sourcePoint" />
            <mxPoint x="-1100" y="1505" as="targetPoint" />
          </mxGeometry>
        </mxCell>
        <mxCell id="nSRQZIyI5lkoN6vEXMfe-83" value="-SF Contact Object-" style="swimlane;fontStyle=1;childLayout=stackLayout;horizontal=1;startSize=30;horizontalStack=0;resizeParent=1;resizeParentMax=0;resizeLast=0;collapsible=1;marginBottom=0;" parent="1" vertex="1">
          <mxGeometry x="-720" y="1140" width="220" height="990" as="geometry" />
        </mxCell>
        <mxCell id="nSRQZIyI5lkoN6vEXMfe-84" value="1.  Id" style="text;strokeColor=none;fillColor=none;align=left;verticalAlign=middle;spacingLeft=4;spacingRight=4;overflow=hidden;points=[[0,0.5],[1,0.5]];portConstraint=eastwest;rotatable=0;" parent="nSRQZIyI5lkoN6vEXMfe-83" vertex="1">
          <mxGeometry y="30" width="220" height="30" as="geometry" />
        </mxCell>
        <mxCell id="nSRQZIyI5lkoN6vEXMfe-85" value="2.  FirstName" style="text;strokeColor=none;fillColor=none;align=left;verticalAlign=middle;spacingLeft=4;spacingRight=4;overflow=hidden;points=[[0,0.5],[1,0.5]];portConstraint=eastwest;rotatable=0;" parent="nSRQZIyI5lkoN6vEXMfe-83" vertex="1">
          <mxGeometry y="60" width="220" height="30" as="geometry" />
        </mxCell>
        <mxCell id="nSRQZIyI5lkoN6vEXMfe-86" value="3.  hed__Chosen_First_Name__c" style="text;strokeColor=none;fillColor=none;align=left;verticalAlign=middle;spacingLeft=4;spacingRight=4;overflow=hidden;points=[[0,0.5],[1,0.5]];portConstraint=eastwest;rotatable=0;" parent="nSRQZIyI5lkoN6vEXMfe-83" vertex="1">
          <mxGeometry y="90" width="220" height="30" as="geometry" />
        </mxCell>
        <mxCell id="nSRQZIyI5lkoN6vEXMfe-87" value="4.  LastName" style="text;strokeColor=none;fillColor=none;align=left;verticalAlign=middle;spacingLeft=4;spacingRight=4;overflow=hidden;points=[[0,0.5],[1,0.5]];portConstraint=eastwest;rotatable=0;" parent="nSRQZIyI5lkoN6vEXMfe-83" vertex="1">
          <mxGeometry y="120" width="220" height="30" as="geometry" />
        </mxCell>
        <mxCell id="nSRQZIyI5lkoN6vEXMfe-88" value="5.  MiddleName" style="text;strokeColor=none;fillColor=none;align=left;verticalAlign=middle;spacingLeft=4;spacingRight=4;overflow=hidden;points=[[0,0.5],[1,0.5]];portConstraint=eastwest;rotatable=0;" parent="nSRQZIyI5lkoN6vEXMfe-83" vertex="1">
          <mxGeometry y="150" width="220" height="30" as="geometry" />
        </mxCell>
        <mxCell id="nSRQZIyI5lkoN6vEXMfe-89" value="6.  HomePhone" style="text;strokeColor=none;fillColor=none;align=left;verticalAlign=middle;spacingLeft=4;spacingRight=4;overflow=hidden;points=[[0,0.5],[1,0.5]];portConstraint=eastwest;rotatable=0;" parent="nSRQZIyI5lkoN6vEXMfe-83" vertex="1">
          <mxGeometry y="180" width="220" height="30" as="geometry" />
        </mxCell>
        <mxCell id="nSRQZIyI5lkoN6vEXMfe-90" value="7.  MobilePhone" style="text;strokeColor=none;fillColor=none;align=left;verticalAlign=middle;spacingLeft=4;spacingRight=4;overflow=hidden;points=[[0,0.5],[1,0.5]];portConstraint=eastwest;rotatable=0;" parent="nSRQZIyI5lkoN6vEXMfe-83" vertex="1">
          <mxGeometry y="210" width="220" height="30" as="geometry" />
        </mxCell>
        <mxCell id="nSRQZIyI5lkoN6vEXMfe-91" value="8.  hed__WorkPhone__c" style="text;strokeColor=none;fillColor=none;align=left;verticalAlign=middle;spacingLeft=4;spacingRight=4;overflow=hidden;points=[[0,0.5],[1,0.5]];portConstraint=eastwest;rotatable=0;" parent="nSRQZIyI5lkoN6vEXMfe-83" vertex="1">
          <mxGeometry y="240" width="220" height="30" as="geometry" />
        </mxCell>
        <mxCell id="nSRQZIyI5lkoN6vEXMfe-92" value="9.  hed__PreferredPhone__c" style="text;strokeColor=none;fillColor=none;align=left;verticalAlign=middle;spacingLeft=4;spacingRight=4;overflow=hidden;points=[[0,0.5],[1,0.5]];portConstraint=eastwest;rotatable=0;" parent="nSRQZIyI5lkoN6vEXMfe-83" vertex="1">
          <mxGeometry y="270" width="220" height="30" as="geometry" />
        </mxCell>
        <mxCell id="nSRQZIyI5lkoN6vEXMfe-93" value="10.  hed__UniversityEmail__c" style="text;strokeColor=none;fillColor=none;align=left;verticalAlign=middle;spacingLeft=4;spacingRight=4;overflow=hidden;points=[[0,0.5],[1,0.5]];portConstraint=eastwest;rotatable=0;" parent="nSRQZIyI5lkoN6vEXMfe-83" vertex="1">
          <mxGeometry y="300" width="220" height="30" as="geometry" />
        </mxCell>
        <mxCell id="nSRQZIyI5lkoN6vEXMfe-94" value="11.  hed__AlternateEmail__c" style="text;strokeColor=none;fillColor=none;align=left;verticalAlign=middle;spacingLeft=4;spacingRight=4;overflow=hidden;points=[[0,0.5],[1,0.5]];portConstraint=eastwest;rotatable=0;" parent="nSRQZIyI5lkoN6vEXMfe-83" vertex="1">
          <mxGeometry y="330" width="220" height="30" as="geometry" />
        </mxCell>
        <mxCell id="nSRQZIyI5lkoN6vEXMfe-95" value="12.  Birthdate__c" style="text;strokeColor=none;fillColor=none;align=left;verticalAlign=middle;spacingLeft=4;spacingRight=4;overflow=hidden;points=[[0,0.5],[1,0.5]];portConstraint=eastwest;rotatable=0;fontStyle=1" parent="nSRQZIyI5lkoN6vEXMfe-83" vertex="1">
          <mxGeometry y="360" width="220" height="30" as="geometry" />
        </mxCell>
        <mxCell id="nSRQZIyI5lkoN6vEXMfe-96" value="13.  hed__Gender__c" style="text;strokeColor=none;fillColor=none;align=left;verticalAlign=middle;spacingLeft=4;spacingRight=4;overflow=hidden;points=[[0,0.5],[1,0.5]];portConstraint=eastwest;rotatable=0;" parent="nSRQZIyI5lkoN6vEXMfe-83" vertex="1">
          <mxGeometry y="390" width="220" height="30" as="geometry" />
        </mxCell>
        <mxCell id="nSRQZIyI5lkoN6vEXMfe-97" value="14.  hed__Ethnicity__c" style="text;strokeColor=none;fillColor=none;align=left;verticalAlign=middle;spacingLeft=4;spacingRight=4;overflow=hidden;points=[[0,0.5],[1,0.5]];portConstraint=eastwest;rotatable=0;" parent="nSRQZIyI5lkoN6vEXMfe-83" vertex="1">
          <mxGeometry y="420" width="220" height="30" as="geometry" />
        </mxCell>
        <mxCell id="nSRQZIyI5lkoN6vEXMfe-98" value="15.  hed__Race__c" style="text;strokeColor=none;fillColor=none;align=left;verticalAlign=middle;spacingLeft=4;spacingRight=4;overflow=hidden;points=[[0,0.5],[1,0.5]];portConstraint=eastwest;rotatable=0;" parent="nSRQZIyI5lkoN6vEXMfe-83" vertex="1">
          <mxGeometry y="450" width="220" height="30" as="geometry" />
        </mxCell>
        <mxCell id="nSRQZIyI5lkoN6vEXMfe-99" value="16.  hed__Citizenship__c" style="text;strokeColor=none;fillColor=none;align=left;verticalAlign=middle;spacingLeft=4;spacingRight=4;overflow=hidden;points=[[0,0.5],[1,0.5]];portConstraint=eastwest;rotatable=0;" parent="nSRQZIyI5lkoN6vEXMfe-83" vertex="1">
          <mxGeometry y="480" width="220" height="30" as="geometry" />
        </mxCell>
        <mxCell id="nSRQZIyI5lkoN6vEXMfe-100" value="17.  Marital_Status" style="text;strokeColor=none;fillColor=none;align=left;verticalAlign=middle;spacingLeft=4;spacingRight=4;overflow=hidden;points=[[0,0.5],[1,0.5]];portConstraint=eastwest;rotatable=0;" parent="nSRQZIyI5lkoN6vEXMfe-83" vertex="1">
          <mxGeometry y="510" width="220" height="30" as="geometry" />
        </mxCell>
        <mxCell id="nSRQZIyI5lkoN6vEXMfe-101" value="18.  hed__Deceased__c" style="text;strokeColor=none;fillColor=none;align=left;verticalAlign=middle;spacingLeft=4;spacingRight=4;overflow=hidden;points=[[0,0.5],[1,0.5]];portConstraint=eastwest;rotatable=0;fontStyle=1" parent="nSRQZIyI5lkoN6vEXMfe-83" vertex="1">
          <mxGeometry y="540" width="220" height="30" as="geometry" />
        </mxCell>
        <mxCell id="nSRQZIyI5lkoN6vEXMfe-102" value="19.  hed__FERPA__c" style="text;strokeColor=none;fillColor=none;align=left;verticalAlign=middle;spacingLeft=4;spacingRight=4;overflow=hidden;points=[[0,0.5],[1,0.5]];portConstraint=eastwest;rotatable=0;" parent="nSRQZIyI5lkoN6vEXMfe-83" vertex="1">
          <mxGeometry y="570" width="220" height="30" as="geometry" />
        </mxCell>
        <mxCell id="nSRQZIyI5lkoN6vEXMfe-103" value="20.  hed__Social_Security_Number__c" style="text;strokeColor=none;fillColor=none;align=left;verticalAlign=middle;spacingLeft=4;spacingRight=4;overflow=hidden;points=[[0,0.5],[1,0.5]];portConstraint=eastwest;rotatable=0;" parent="nSRQZIyI5lkoN6vEXMfe-83" vertex="1">
          <mxGeometry y="600" width="220" height="30" as="geometry" />
        </mxCell>
        <mxCell id="nSRQZIyI5lkoN6vEXMfe-104" value="21.  MailingStreet" style="text;strokeColor=none;fillColor=none;align=left;verticalAlign=middle;spacingLeft=4;spacingRight=4;overflow=hidden;points=[[0,0.5],[1,0.5]];portConstraint=eastwest;rotatable=0;" parent="nSRQZIyI5lkoN6vEXMfe-83" vertex="1">
          <mxGeometry y="630" width="220" height="30" as="geometry" />
        </mxCell>
        <mxCell id="nSRQZIyI5lkoN6vEXMfe-105" value="22.  MailingCity" style="text;strokeColor=none;fillColor=none;align=left;verticalAlign=middle;spacingLeft=4;spacingRight=4;overflow=hidden;points=[[0,0.5],[1,0.5]];portConstraint=eastwest;rotatable=0;" parent="nSRQZIyI5lkoN6vEXMfe-83" vertex="1">
          <mxGeometry y="660" width="220" height="30" as="geometry" />
        </mxCell>
        <mxCell id="nSRQZIyI5lkoN6vEXMfe-106" value="23.  MailingState" style="text;strokeColor=none;fillColor=none;align=left;verticalAlign=middle;spacingLeft=4;spacingRight=4;overflow=hidden;points=[[0,0.5],[1,0.5]];portConstraint=eastwest;rotatable=0;" parent="nSRQZIyI5lkoN6vEXMfe-83" vertex="1">
          <mxGeometry y="690" width="220" height="30" as="geometry" />
        </mxCell>
        <mxCell id="nSRQZIyI5lkoN6vEXMfe-107" value="24.  MailingPostalCode" style="text;strokeColor=none;fillColor=none;align=left;verticalAlign=middle;spacingLeft=4;spacingRight=4;overflow=hidden;points=[[0,0.5],[1,0.5]];portConstraint=eastwest;rotatable=0;" parent="nSRQZIyI5lkoN6vEXMfe-83" vertex="1">
          <mxGeometry y="720" width="220" height="30" as="geometry" />
        </mxCell>
        <mxCell id="nSRQZIyI5lkoN6vEXMfe-108" value="25.  MailingCountry" style="text;strokeColor=none;fillColor=none;align=left;verticalAlign=middle;spacingLeft=4;spacingRight=4;overflow=hidden;points=[[0,0.5],[1,0.5]];portConstraint=eastwest;rotatable=0;" parent="nSRQZIyI5lkoN6vEXMfe-83" vertex="1">
          <mxGeometry y="750" width="220" height="30" as="geometry" />
        </mxCell>
        <mxCell id="nSRQZIyI5lkoN6vEXMfe-109" value="26.  OtherStreet" style="text;strokeColor=none;fillColor=none;align=left;verticalAlign=middle;spacingLeft=4;spacingRight=4;overflow=hidden;points=[[0,0.5],[1,0.5]];portConstraint=eastwest;rotatable=0;" parent="nSRQZIyI5lkoN6vEXMfe-83" vertex="1">
          <mxGeometry y="780" width="220" height="30" as="geometry" />
        </mxCell>
        <mxCell id="nSRQZIyI5lkoN6vEXMfe-110" value="27.  OtherCity" style="text;strokeColor=none;fillColor=none;align=left;verticalAlign=middle;spacingLeft=4;spacingRight=4;overflow=hidden;points=[[0,0.5],[1,0.5]];portConstraint=eastwest;rotatable=0;" parent="nSRQZIyI5lkoN6vEXMfe-83" vertex="1">
          <mxGeometry y="810" width="220" height="30" as="geometry" />
        </mxCell>
        <mxCell id="nSRQZIyI5lkoN6vEXMfe-111" value="28.  OtherState" style="text;strokeColor=none;fillColor=none;align=left;verticalAlign=middle;spacingLeft=4;spacingRight=4;overflow=hidden;points=[[0,0.5],[1,0.5]];portConstraint=eastwest;rotatable=0;" parent="nSRQZIyI5lkoN6vEXMfe-83" vertex="1">
          <mxGeometry y="840" width="220" height="30" as="geometry" />
        </mxCell>
        <mxCell id="nSRQZIyI5lkoN6vEXMfe-112" value="29.  OtherPostalCode" style="text;strokeColor=none;fillColor=none;align=left;verticalAlign=middle;spacingLeft=4;spacingRight=4;overflow=hidden;points=[[0,0.5],[1,0.5]];portConstraint=eastwest;rotatable=0;" parent="nSRQZIyI5lkoN6vEXMfe-83" vertex="1">
          <mxGeometry y="870" width="220" height="30" as="geometry" />
        </mxCell>
        <mxCell id="nSRQZIyI5lkoN6vEXMfe-113" value="30.  OtherCountry" style="text;strokeColor=none;fillColor=none;align=left;verticalAlign=middle;spacingLeft=4;spacingRight=4;overflow=hidden;points=[[0,0.5],[1,0.5]];portConstraint=eastwest;rotatable=0;" parent="nSRQZIyI5lkoN6vEXMfe-83" vertex="1">
          <mxGeometry y="900" width="220" height="30" as="geometry" />
        </mxCell>
        <mxCell id="nSRQZIyI5lkoN6vEXMfe-114" value="31.  EMPLID__c" style="text;strokeColor=none;fillColor=none;align=left;verticalAlign=middle;spacingLeft=4;spacingRight=4;overflow=hidden;points=[[0,0.5],[1,0.5]];portConstraint=eastwest;rotatable=0;fontStyle=1" parent="nSRQZIyI5lkoN6vEXMfe-83" vertex="1">
          <mxGeometry y="930" width="220" height="30" as="geometry" />
        </mxCell>
        <mxCell id="nSRQZIyI5lkoN6vEXMfe-115" value="32.  UserId__c" style="text;strokeColor=none;fillColor=none;align=left;verticalAlign=middle;spacingLeft=4;spacingRight=4;overflow=hidden;points=[[0,0.5],[1,0.5]];portConstraint=eastwest;rotatable=0;" parent="nSRQZIyI5lkoN6vEXMfe-83" vertex="1">
          <mxGeometry y="960" width="220" height="30" as="geometry" />
        </mxCell>
        <mxCell id="nSRQZIyI5lkoN6vEXMfe-116" value="" style="shape=link;html=1;rounded=0;startArrow=classic;startFill=1;endArrow=none;endFill=0;startSize=6;endSize=6;sourcePerimeterSpacing=0;jumpStyle=arc;entryX=0.001;entryY=0.653;entryDx=0;entryDy=0;entryPerimeter=0;" parent="1" target="nSRQZIyI5lkoN6vEXMfe-90" edge="1">
          <mxGeometry width="100" relative="1" as="geometry">
            <mxPoint x="-931" y="1370" as="sourcePoint" />
            <mxPoint x="-850" y="1370" as="targetPoint" />
          </mxGeometry>
        </mxCell>
      </root>
    </mxGraphModel>
  </diagram>
</mxfile>
